<?xml version="1.0" encoding="iso-8859-1"?>
<!-- Generator: Adobe Illustrator 19.0.0, SVG Export Plug-In . SVG Version: 6.00 Build 0)  -->
<svg version="1.1" id="Capa_1" xmlns="http://www.w3.org/2000/svg" xmlns:xlink="http://www.w3.org/1999/xlink" x="0px" y="0px"
	 viewBox="0 0 512.306 512.306" style="enable-background:new 0 0 512.306 512.306;" xml:space="preserve">
<path style="fill:#455A64;" d="M332.501,408.153l-62.613-15.616l-4.8-19.2c16.81-17.259,27.914-39.264,31.808-63.04
	c9.911-3.391,17.023-12.134,18.325-22.528l4.267-33.365c1.497-11.892-4.942-23.368-15.872-28.288l1.408-28.907l5.653-5.653
	c14.566-15.231,15.03-39.083,1.067-54.869c-14.899-20.787-39.679-32.147-65.152-29.867c-22.53-0.96-44.828,4.875-64,16.747
	c-72.533,1.707-82.325,35.797-82.325,69.035c0,7.253,1.621,22.656,2.837,33.003c-11.605,4.58-18.63,16.444-17.067,28.821
	l4.267,33.387c1.41,11.141,9.462,20.3,20.331,23.125c3.878,22.815,14.376,43.987,30.187,60.885l-5.163,20.693l-62.613,15.616
	C30.099,418.707-0.064,457.257,0,501.486c0,5.891,4.776,10.667,10.667,10.667h384c5.891,0,10.667-4.776,10.667-10.667
	C405.412,457.327,375.356,418.81,332.501,408.153z"/>
<path style="fill:#FFC107;" d="M384,0.153c-11.804,0.022-23.549,1.673-34.901,4.907c-5.673,1.588-8.985,7.474-7.397,13.147
	c1.004,3.589,3.809,6.393,7.397,7.397c56.631,16.015,89.556,74.906,73.541,131.536c-10.074,35.624-37.917,63.467-73.541,73.541
	c-5.673,1.588-8.985,7.474-7.397,13.147c1.004,3.589,3.809,6.393,7.397,7.397c67.971,19.426,138.82-19.927,158.246-87.898
	S487.418,24.507,419.447,5.08C407.92,1.786,395.988,0.127,384,0.153z"/>
<g>
</g>
<g>
</g>
<g>
</g>
<g>
</g>
<g>
</g>
<g>
</g>
<g>
</g>
<g>
</g>
<g>
</g>
<g>
</g>
<g>
</g>
<g>
</g>
<g>
</g>
<g>
</g>
<g>
</g>
</svg>
